<svg width="19" height="18" fill="none" xmlns="http://www.w3.org/2000/svg"><path d="M9.572 17.163C4.842 17.163.99 13.312.99 8.58.99 3.851 4.841 0 9.572 0c4.73 0 8.581 3.851 8.581 8.581 0 4.73-3.851 8.582-8.581 8.582Zm0-15.907c-4.044 0-7.326 3.29-7.326 7.325 0 4.036 3.282 7.326 7.326 7.326 4.043 0 7.325-3.29 7.325-7.326 0-4.035-3.282-7.325-7.325-7.325ZM18.363 18a.621.621 0 0 1-.444-.184l-1.674-1.675a.632.632 0 0 1 0-.887.632.632 0 0 1 .887 0l1.674 1.674a.632.632 0 0 1 0 .888.621.621 0 0 1-.443.184Z" fill="#F8F8F8"/></svg>