<svg width="18" height="18" fill="none" xmlns="http://www.w3.org/2000/svg"><path d="M18 12.771C18 16.047 16.047 18 12.771 18H11.7a.903.903 0 0 1-.9-.9v-5.193a.45.45 0 0 1 .441-.45l1.584-.027a.287.287 0 0 0 .261-.225l.315-1.719a.272.272 0 0 0-.27-.315l-1.917.027a.457.457 0 0 1-.459-.441l-.036-2.205a.27.27 0 0 1 .27-.27l2.16-.036c.153 0 .27-.117.27-.27l-.036-2.16a.265.265 0 0 0-.27-.27l-2.43.036a2.697 2.697 0 0 0-2.655 2.745l.045 2.475a.446.446 0 0 1-.441.459l-1.08.018a.265.265 0 0 0-.27.27l.027 1.71c0 .153.117.27.27.27l1.08-.018c.252 0 .45.198.459.441l.081 5.13a.9.9 0 0 1-.9.918h-2.07C1.953 18 0 16.047 0 12.762V5.229C0 1.953 1.953 0 5.229 0h7.542C16.047 0 18 1.953 18 5.229v7.542Z" fill="#F9F4F4"/></svg>