<svg width="18" height="18" fill="none" xmlns="http://www.w3.org/2000/svg"><path d="M12.771 0H5.229C1.953 0 0 1.953 0 5.229v7.533C0 16.047 1.953 18 5.229 18h7.533c3.276 0 5.229-1.953 5.229-5.229V5.229C18 1.953 16.047 0 12.771 0ZM9 12.492A3.495 3.495 0 0 1 5.508 9 3.495 3.495 0 0 1 9 5.508 3.495 3.495 0 0 1 12.492 9 3.495 3.495 0 0 1 9 12.492Zm5.328-8.1a1.04 1.04 0 0 1-.189.297 1.04 1.04 0 0 1-.297.189.896.896 0 0 1-.981-.189 1.04 1.04 0 0 1-.189-.297.896.896 0 0 1-.072-.342c0-.117.027-.234.072-.342a.93.93 0 0 1 .189-.297.899.899 0 0 1 .981-.189.681.681 0 0 1 .162.081c.045.027.09.072.135.108a.93.93 0 0 1 .189.297.896.896 0 0 1 .072.342.896.896 0 0 1-.072.342Z" fill="#F9F9F9"/></svg>