<svg width="1440" height="3971" fill="none" xmlns="http://www.w3.org/2000/svg"><g filter="url('#filter0_f_701_105')"><path d="M-213.394 2974.91c-169.775-277.58-252.976-163.2-273.354-71.31-9.463 58.67 57.953 176.93 181.591 248.41 123.638 71.48 310.056 588.65 514.372 802.21 204.316 213.57 345.696-50.73 283.437-361.03-62.26-310.31-493.826-271.3-706.046-618.28Z" fill="url('#paint0_linear_701_105')"/></g><g filter="url('#filter1_f_701_105')"><path d="M458.262 451.96c-299.089-128.145-300.756 13.287-264.204 100.022 26.234 53.326 149.646 110.76 291.844 97.514C628.101 636.25 1079.4 950.165 1369.62 1006.11c290.21 55.94 252.58-241.416 22.24-458.464-230.34-217.047-559.737 64.495-933.598-95.686Z" fill="url('#paint1_linear_701_105')"/></g><g filter="url('#filter2_f_701_105')"><path d="M1183 1507c-299.089-128.14-1025.495 722.25-988.942 808.98 26.233 53.33 149.122 102.65 291.844 97.52 722.598-26 406.885 657.56 697.098 713.5 290.21 55.94 439.2-598.31 208.86-815.35-230.34-217.05 165-644.47-208.86-804.65Z" fill="url('#paint2_linear_701_105')" fill-opacity=".85"/></g><g filter="url('#filter3_f_701_105')"><path d="M-326.382 1811.7c-244.226 215.01-117.233 277.29-23.208 281.55 59.425-.78 164.315-87.54 213.456-221.63 49.14-134.09 526.518-406.73 701.736-644.74 175.217-238.02-109.462-331.812-404.424-217.09-294.963 114.73-182.276 533.15-487.56 801.91Z" fill="url('#paint3_linear_701_105')"/></g><defs><linearGradient id="paint0_linear_701_105" x1="490.62" y1="3188.12" x2="-181.535" y2="2965.13" gradientUnits="userSpaceOnUse"><stop offset=".058" stop-color="#B46AFF"/><stop offset="1" stop-color="#2C42FF" stop-opacity=".76"/></linearGradient><linearGradient id="paint1_linear_701_105" x1="966.75" y1="386.053" x2="828.658" y2="847.989" gradientUnits="userSpaceOnUse"><stop stop-color="#B46AFF"/><stop offset="1" stop-color="#2C42FF" stop-opacity=".76"/></linearGradient><linearGradient id="paint2_linear_701_105" x1="567" y1="1819" x2="1309.5" y2="3044.5" gradientUnits="userSpaceOnUse"><stop stop-color="#B46AFF"/><stop offset="1" stop-color="#6590FF" stop-opacity=".64"/></linearGradient><linearGradient id="paint3_linear_701_105" x1="-237.5" y1="1081.5" x2="-341.5" y2="1782" gradientUnits="userSpaceOnUse"><stop offset=".058" stop-color="#B46AFF"/><stop offset="1" stop-color="#2C42FF" stop-opacity=".76"/></linearGradient><filter id="filter0_f_701_105" x="-887.627" y="2400.24" width="1795.1" height="2031.31" filterUnits="userSpaceOnUse" color-interpolation-filters="sRGB"><feFlood flood-opacity="0" result="BackgroundImageFix"/><feBlend in="SourceGraphic" in2="BackgroundImageFix" result="shape"/><feGaussianBlur stdDeviation="200" result="effect1_foregroundBlur_701_105"/></filter><filter id="filter1_f_701_105" x="-222.151" y=".576" width="2198.14" height="1412.41" filterUnits="userSpaceOnUse" color-interpolation-filters="sRGB"><feFlood flood-opacity="0" result="BackgroundImageFix"/><feBlend in="SourceGraphic" in2="BackgroundImageFix" result="shape"/><feGaussianBlur stdDeviation="200" result="effect1_foregroundBlur_701_105"/></filter><filter id="filter2_f_701_105" x="-307.272" y="993.876" width="2311.89" height="2636.5" filterUnits="userSpaceOnUse" color-interpolation-filters="sRGB"><feFlood flood-opacity="0" result="BackgroundImageFix"/><feBlend in="SourceGraphic" in2="BackgroundImageFix" result="shape"/><feGaussianBlur stdDeviation="250" result="effect1_foregroundBlur_701_105"/></filter><filter id="filter3_f_701_105" x="-867.654" y="561.021" width="1886.97" height="1932.23" filterUnits="userSpaceOnUse" color-interpolation-filters="sRGB"><feFlood flood-opacity="0" result="BackgroundImageFix"/><feBlend in="SourceGraphic" in2="BackgroundImageFix" result="shape"/><feGaussianBlur stdDeviation="200" result="effect1_foregroundBlur_701_105"/></filter></defs></svg>