<svg width="141" height="20" fill="none" xmlns="http://www.w3.org/2000/svg"><path d="m10.5 0 2.245 6.91h7.266l-5.878 4.27 2.245 6.91-5.878-4.27-5.878 4.27 2.245-6.91L.99 6.91h7.266L10.5 0ZM70.5 0l2.245 6.91h7.266l-5.878 4.27 2.245 6.91-5.878-4.27-5.878 4.27 2.245-6.91-5.878-4.27h7.266L70.5 0ZM40.5 0l2.245 6.91h7.266l-5.878 4.27 2.245 6.91-5.878-4.27-5.878 4.27 2.245-6.91-5.878-4.27h7.266L40.5 0ZM100.5 0l2.245 6.91h7.266l-5.878 4.27 2.245 6.91-5.878-4.27-5.878 4.27 2.245-6.91-5.878-4.27h7.266L100.5 0ZM130.5 0l2.245 6.91h7.266l-5.878 4.27 2.245 6.91-5.878-4.27-5.878 4.27 2.245-6.91-5.878-4.27h7.266L130.5 0Z" fill="#FFBB36"/></svg>