<svg width="205" height="42" fill="none" xmlns="http://www.w3.org/2000/svg"><path d="M18.544.682V11.13L.84 35.806V25.358L18.544.682ZM18.544 14.354v7.929L5.093 41.03v-7.928l13.45-18.748ZM18.544 39.4H9.001l9.543-13.264V39.4Z" fill="snow"/><path d="M2.249 18.244H.839v9.448h1.41v-9.448Z" fill="snow"/><path d="M1.904 16.91h-.745v4.26h.745v-4.26Z" fill="snow"/><path d="M1.717 15.317h-.372v2.407h.372v-2.407ZM1.345 15.316l.186-3.519.186 3.52M18.544.682V11.13l17.704 24.676V25.358L18.544.682ZM18.544 14.354v7.929L31.968 41.03v-7.928L18.544 14.354ZM18.544 26.136 28.06 39.4h-9.517V26.136Z" fill="snow"/><path d="M34.836 27.686h1.41V18.24h-1.41v9.447Z" fill="snow"/><path d="M35.155 21.18h.744v-4.259h-.744v4.26Z" fill="snow"/><path d="M35.342 17.729h.372V15.32h-.372v2.408ZM35.718 15.316l-.186-3.519-.16 3.52M61.902 11.427v24.157h-5.317v-9.411h-4.067v9.41H47.2V11.428h5.317v8.892h4.067v-8.892h5.317ZM70.222 11.427v24.157h-5.317V11.427h5.317ZM105.711 11.427v24.157h-5.316v-9.411h-4.068v9.41h-5.316V11.428h5.316v8.892h4.068v-8.892h5.316ZM122.352 17.207v18.377h-5.05V17.207h-3.589v-5.78h12.228v5.78h-3.589ZM158.506 35.584h-5.901l-2.526-9.226h-1.674v9.226h-5.317V11.427h9.038c1.994 0 3.536.667 4.652 1.963 1.117 1.297 1.648 3.039 1.648 5.15 0 1.408-.212 2.631-.611 3.706-.399 1.074-1.223 2-2.472 2.815l3.163 10.523ZM148.405 21.17h2.259c.665 0 1.196-.185 1.622-.593.398-.407.611-.963.611-1.704 0-1.556-.691-2.334-2.047-2.334h-2.445v4.631ZM191.628 29.804v5.78h-13.025V11.427h13.025v5.557h-7.815v3.52h6.327v5.372h-6.327v3.928h7.815ZM200.852 17.207v18.377h-5.05V17.207h-3.589v-5.78h12.228v5.78h-3.589ZM80.403 22.06h7.816v13.524h-3.296v-2.52c-1.064 1.927-2.659 2.89-4.785 2.89-2.234 0-4.068-1.074-5.503-3.26-1.436-2.186-2.154-5.113-2.154-8.818 0-3.594.692-6.632 2.1-9.115 1.383-2.445 3.456-3.705 6.221-3.705 2.073 0 3.722.741 4.998 2.186 1.276 1.482 2.073 3.557 2.445 6.225h-5.237c-.319-2.038-1.09-3.076-2.286-3.076-1.728 0-2.605 2.298-2.605 6.929 0 2.779.266 4.631.824 5.52.558.89 1.25 1.334 2.02 1.334.639 0 1.197-.26 1.649-.815.452-.556.69-1.297.69-2.223h-2.87V22.06h-.027ZM141.493 35.584h-4.892l-.983-4.743-1.01-5.298-1.33-7.002-1.302 7.002-1.01 5.298-.904 4.743h-4.971l5.343-24.157h5.636l5.423 24.157ZM167.97 22.06h7.815v13.524h-3.296v-2.52c-1.063 1.927-2.658 2.89-4.785 2.89-2.233 0-4.067-1.074-5.503-3.26-1.435-2.186-2.153-5.113-2.153-8.818 0-3.594.691-6.632 2.073-9.115 1.383-2.445 3.456-3.705 6.221-3.705 2.073 0 3.722.741 4.998 2.186 1.249 1.482 2.073 3.557 2.445 6.225l-5.157.704c-.266-2.52-1.037-3.78-2.366-3.78-1.754 0-2.605 2.298-2.605 6.929 0 2.779.292 4.631.851 5.52.558.89 1.222 1.334 2.02 1.334.638 0 1.196-.26 1.648-.815.452-.556.691-1.297.691-2.223h-2.871V22.06h-.026Z" fill="snow"/></svg>