<svg width="241" height="34" fill="none" xmlns="http://www.w3.org/2000/svg"><path d="M20.956 0v8.753L0 29.424v-8.753L20.956 0ZM20.956 11.453v6.642L5.034 33.801v-6.643l15.922-15.705ZM20.956 32.435H9.66l11.296-11.112v11.112Z" fill="snow"/><path d="M1.668 14.712H0v7.915h1.668v-7.915Z" fill="snow"/><path d="M1.258 13.595H.377v3.568h.881v-3.568Z" fill="snow"/><path d="M1.04 12.26H.598v2.017h.44V12.26ZM.599 12.26l.22-2.948.22 2.947M20.956 0v8.753l20.957 20.671v-8.753L20.956 0ZM20.956 11.453v6.642l15.89 15.706v-6.643l-15.89-15.705ZM20.956 21.323l11.265 11.112H20.956V21.323Z" fill="snow"/><path d="M40.24 22.622h1.668v-7.915H40.24v7.915Z" fill="snow"/><path d="M40.619 17.172h.881v-3.569h-.881v3.569Z" fill="snow"/><path d="M40.84 14.28h.44v-2.017h-.44v2.017ZM41.284 12.26l-.22-2.948-.189 2.947M72.279 9.001v20.237h-6.293v-7.884H61.17v7.884h-6.293V9h6.293v7.45h4.815V9h6.293ZM82.127 9.001v20.237h-6.293V9h6.293ZM124.134 9.001v20.237h-6.293v-7.884h-4.814v7.884h-6.294V9h6.294v7.45h4.814V9h6.293ZM143.833 13.843v15.395h-5.979V13.843h-4.248V9h14.475v4.842h-4.248ZM186.626 29.238h-6.985l-2.989-7.729h-1.983v7.729h-6.293V9h10.699c2.359 0 4.185.559 5.506 1.645 1.322 1.086 1.951 2.545 1.951 4.314 0 1.18-.252 2.204-.724 3.104-.472.9-1.447 1.676-2.926 2.359l3.744 8.815Zm-11.957-12.074h2.675c.787 0 1.416-.155 1.919-.497.472-.341.724-.807.724-1.427 0-1.304-.818-1.956-2.423-1.956h-2.895v3.88ZM225.834 24.396v4.842h-15.418V9h15.418v4.656h-9.251v2.948h7.489v4.5h-7.489v3.29h9.251ZM236.752 13.843v15.395h-5.979V13.843h-4.248V9H241v4.842h-4.248ZM94.179 17.909h9.251v11.329h-3.902v-2.11c-1.259 1.613-3.147 2.42-5.664 2.42-2.643 0-4.814-.9-6.514-2.731-1.699-1.831-2.548-4.283-2.548-7.387 0-3.01.818-5.556 2.486-7.636 1.636-2.048 4.09-3.103 7.363-3.103 2.454 0 4.405.62 5.915 1.83 1.511 1.242 2.455 2.98 2.895 5.215h-6.199c-.377-1.707-1.29-2.576-2.706-2.576-2.045 0-3.083 1.925-3.083 5.804 0 2.328.314 3.88.975 4.625.66.745 1.479 1.117 2.392 1.117.755 0 1.415-.217 1.95-.683.535-.465.819-1.086.819-1.862H94.21V17.91h-.031ZM166.488 29.238h-5.79l-1.164-3.973-1.196-4.439-1.573-5.866-1.542 5.866-1.196 4.439-1.07 3.973h-5.884L153.398 9h6.671l6.419 20.237ZM197.828 17.909h9.251v11.329h-3.902v-2.11c-1.258 1.613-3.146 2.42-5.664 2.42-2.643 0-4.814-.9-6.513-2.731-1.699-1.831-2.549-4.283-2.549-7.387 0-3.01.818-5.556 2.455-7.636 1.636-2.048 4.09-3.103 7.363-3.103 2.454 0 4.405.62 5.915 1.83 1.479 1.242 2.455 2.98 2.895 5.215l-6.104.59c-.315-2.11-1.227-3.166-2.801-3.166-2.077 0-3.083 1.925-3.083 5.804 0 2.328.346 3.88 1.006 4.625.661.745 1.448 1.117 2.392 1.117.755 0 1.416-.217 1.951-.683.535-.465.818-1.086.818-1.862h-3.398V17.91h-.032Z" fill="snow"/></svg>